<svg xmlns="http://www.w3.org/2000/svg" width="136" height="118" viewBox="0 0 136 118">
<g>
<path d="M 51.06 98.71 C44.87,100.82 35.50,101.59 32.00,100.28 C28.09,98.81 24.56,95.25 22.39,90.60 C20.45,86.42 20.02,83.86 20.01,76.46 C20.00,71.48 20.70,64.74 21.55,61.46 C27.20,39.78 49.12,21.26 77.83,13.92 C86.27,11.76 103.00,11.32 109.38,13.09 C120.79,16.26 120.94,27.52 109.73,39.68 C105.08,44.73 101.29,47.00 97.55,47.00 C93.43,47.00 94.36,43.37 100.00,37.41 C105.47,31.63 106.10,30.00 102.90,30.00 C97.11,30.00 81.16,41.03 67.44,54.50 C50.47,71.17 40.69,91.00 49.43,91.00 C51.71,91.00 55.69,88.54 73.67,76.02 C79.92,71.67 83.00,71.24 83.00,74.71 C83.00,77.14 70.61,88.74 63.47,92.99 C60.25,94.91 54.66,97.48 51.06,98.71 Z" fill="rgb(31,31,31)"/>
<path d="M 0.00 59.00 L 0.00 0.00 L 68.00 0.00 L 136.00 0.00 L 136.00 59.00 L 136.00 118.00 L 68.00 118.00 L 0.00 118.00 L 0.00 59.00 ZM 51.06 98.71 C54.66,97.48 60.25,94.91 63.47,92.99 C70.61,88.74 83.00,77.14 83.00,74.71 C83.00,71.24 79.92,71.67 73.67,76.02 C55.69,88.54 51.71,91.00 49.43,91.00 C40.69,91.00 50.47,71.17 67.44,54.50 C81.16,41.03 97.11,30.00 102.90,30.00 C106.10,30.00 105.47,31.63 100.00,37.41 C94.36,43.37 93.43,47.00 97.55,47.00 C101.29,47.00 105.08,44.73 109.73,39.68 C120.94,27.52 120.79,16.26 109.38,13.09 C103.00,11.32 86.27,11.76 77.83,13.92 C49.12,21.26 27.20,39.78 21.55,61.46 C20.70,64.74 20.00,71.48 20.01,76.46 C20.02,83.86 20.45,86.42 22.39,90.60 C24.56,95.25 28.09,98.81 32.00,100.28 C35.50,101.59 44.87,100.82 51.06,98.71 Z" fill="rgb(254,254,254)"/>
</g>
</svg>